<!DOCTYPE svg PUBLIC "-//W3C//DTD SVG 1.1//EN" "http://www.w3.org/Graphics/SVG/1.1/DTD/svg11.dtd">

<!-- Uploaded to: SVG Repo, www.svgrepo.com, Transformed by: SVG Repo Mixer Tools -->
<svg fill="#ffffff" height="50px" width="50px" version="1.1" id="Layer_1" xmlns="http://www.w3.org/2000/svg" xmlns:xlink="http://www.w3.org/1999/xlink" viewBox="0 0 512 512" xml:space="preserve" stroke="#ffffff">

<g id="SVGRepo_bgCarrier" stroke-width="0"/>

<g id="SVGRepo_tracerCarrier" stroke-linecap="round" stroke-linejoin="round"/>

<g id="SVGRepo_iconCarrier"> <g> <g> <g> <path d="M178.853,272.412c-41.117,0-74.567,33.45-74.567,74.567s33.45,74.567,74.567,74.567s74.567-33.45,74.567-74.567 S219.97,272.412,178.853,272.412z M178.853,399.717c-29.08,0-52.738-23.658-52.738-52.738s23.658-52.738,52.738-52.738 s52.738,23.658,52.738,52.738S207.933,399.717,178.853,399.717z"/> <path d="M332.961,305.914h-32.693c-1.825-5.382-4.009-10.64-6.538-15.736l23.131-23.131c4.262-4.262,4.262-11.173,0-15.435 l-42.64-42.64c-4.262-4.262-11.173-4.262-15.436,0l-23.13,23.131c-5.096-2.528-10.353-4.713-15.735-6.537v-32.693 c0-6.028-4.886-10.914-10.914-10.914h-60.302c-6.028,0-10.914,4.886-10.914,10.914v32.693c-5.382,1.824-10.64,4.009-15.736,6.537 l-23.13-23.13c-2.046-2.046-4.823-3.197-7.718-3.197c-2.894,0-5.671,1.15-7.718,3.197l-42.64,42.64 c-2.046,2.046-3.197,4.823-3.197,7.718s1.15,5.671,3.197,7.718l23.131,23.13c-2.528,5.096-4.713,10.354-6.537,15.736H24.747 c-6.028,0-10.914,4.886-10.914,10.914v60.302c0,6.028,4.886,10.914,10.914,10.914H57.44c1.824,5.382,4.009,10.64,6.537,15.736 l-23.13,23.13c-2.046,2.046-3.197,4.823-3.197,7.718c0,2.895,1.15,5.671,3.197,7.718l42.64,42.64 c2.046,2.046,4.823,3.197,7.718,3.197c2.895,0,5.671-1.15,7.718-3.197l23.13-23.13c5.096,2.528,10.354,4.713,15.736,6.537v32.693 c0,6.028,4.886,10.914,10.914,10.914h60.302c6.028,0,10.914-4.886,10.914-10.914v-32.693c5.382-1.824,10.64-4.009,15.735-6.537 l23.13,23.131c2.046,2.046,4.823,3.197,7.718,3.197c2.894,0,5.671-1.15,7.718-3.197l42.64-42.64 c4.262-4.262,4.262-11.173,0-15.435l-23.131-23.13c2.528-5.095,4.713-10.354,6.538-15.735h32.693 c6.028,0,10.914-4.886,10.914-10.914V316.83C343.875,310.8,338.989,305.914,332.961,305.914z M322.048,366.216h-0.002h-29.875 c-4.946,0-9.274,3.326-10.547,8.105c-2.419,9.08-6.047,17.811-10.782,25.952c-2.491,4.282-1.787,9.704,1.716,13.206 l21.149,21.149l-27.205,27.205l-21.149-21.15c-3.504-3.501-8.926-4.206-13.208-1.716c-8.141,4.737-16.871,8.365-25.95,10.782 c-4.779,1.273-8.106,5.6-8.106,10.547v29.875h-38.473v-29.875c0-4.946-3.327-9.274-8.106-10.547 c-9.08-2.418-17.81-6.045-25.951-10.782c-4.284-2.491-9.705-1.787-13.207,1.717l-21.149,21.149l-27.205-27.205l21.149-21.149 c3.502-3.502,4.208-8.926,1.717-13.207c-4.737-8.14-8.365-16.871-10.782-25.951c-1.273-4.779-5.6-8.106-10.547-8.106H35.662 v-38.473h29.875c4.946,0,9.274-3.326,10.547-8.106c2.417-9.08,6.045-17.81,10.782-25.951c2.491-4.282,1.787-9.704-1.716-13.207 L64,259.328l27.205-27.205l21.149,21.149c3.502,3.502,8.925,4.208,13.208,1.717c8.14-4.737,16.871-8.365,25.951-10.782 c4.779-1.273,8.106-5.6,8.106-10.547v-29.875h38.473v29.875c0,4.946,3.326,9.274,8.106,10.547 c9.079,2.418,17.81,6.045,25.95,10.782c4.283,2.491,9.704,1.787,13.207-1.716l21.149-21.15l27.205,27.205l-21.149,21.15 c-3.502,3.502-4.206,8.925-1.716,13.206c4.736,8.141,8.364,16.873,10.782,25.952c1.273,4.779,5.6,8.105,10.547,8.105h29.875 V366.216z"/> <path d="M393.63,62.758c-24.073,0-43.657,19.585-43.657,43.657s19.585,43.658,43.657,43.658 c24.073,0,43.658-19.585,43.658-43.658S417.703,62.758,393.63,62.758z M393.63,128.244c-12.036,0-21.829-9.792-21.829-21.829 s9.792-21.829,21.829-21.829c12.036,0,21.829,9.792,21.829,21.829S405.667,128.244,393.63,128.244z"/> <path d="M492.708,125.81l-12.616-7.284c0.568-4.024,0.854-8.073,0.854-12.111s-0.286-8.086-0.854-12.109l12.616-7.284 c5.22-3.013,7.009-9.689,3.995-14.909l-21.829-37.808c-3.013-5.22-9.69-7.009-14.909-3.995l-12.66,7.308 c-6.388-4.986-13.456-9.08-20.932-12.123V10.914C426.374,4.886,421.487,0,415.459,0h-43.657c-6.028,0-10.914,4.886-10.914,10.914 v14.581c-7.475,3.043-14.543,7.137-20.932,12.123l-12.66-7.308c-5.221-3.016-11.896-1.226-14.909,3.995l-21.829,37.808 c-3.015,5.22-1.226,11.896,3.995,14.909l12.616,7.284c-0.568,4.023-0.854,8.073-0.854,12.109s0.286,8.086,0.854,12.111 l-12.616,7.284c-5.22,3.013-7.009,9.689-3.995,14.909l21.829,37.808c1.447,2.507,3.831,4.336,6.627,5.085 c2.797,0.749,5.776,0.357,8.282-1.09l12.66-7.309c6.388,4.986,13.456,9.08,20.932,12.123v14.581 c0,6.028,4.886,10.914,10.914,10.914h43.657c6.028,0,10.914-4.886,10.914-10.914v-14.581c7.475-3.043,14.543-7.137,20.932-12.123 l12.66,7.309c2.507,1.447,5.484,1.84,8.282,1.09c2.796-0.75,5.18-2.578,6.627-5.085l21.829-37.808 C499.717,135.499,497.928,128.823,492.708,125.81z M457.322,91.247c1.191,4.999,1.794,10.102,1.794,15.168 s-0.604,10.169-1.794,15.169c-1.118,4.695,0.98,9.568,5.16,11.981l9.859,5.692l-10.914,18.905l-9.898-5.715 c-4.181-2.414-9.45-1.794-12.956,1.523c-7.439,7.036-16.512,12.291-26.237,15.196c-4.622,1.381-7.791,5.633-7.791,10.458v11.378 h-21.829v-11.38c0-4.824-3.167-9.076-7.791-10.458c-9.725-2.905-18.798-8.16-26.237-15.196 c-3.507-3.317-8.777-3.937-12.956-1.523l-9.898,5.715l-10.914-18.905l9.859-5.692c4.18-2.413,6.278-7.285,5.16-11.981 c-1.191-5-1.794-10.103-1.794-15.169s0.604-10.169,1.794-15.168c1.118-4.695-0.98-9.568-5.16-11.981l-9.859-5.692l10.914-18.905 l9.898,5.715c4.181,2.414,9.45,1.794,12.956-1.523c7.44-7.036,16.513-12.291,26.237-15.196c4.622-1.381,7.791-5.633,7.791-10.458 V21.829h21.829v11.38c0,4.824,3.167,9.076,7.791,10.458c9.724,2.905,18.797,8.16,26.237,15.196 c3.507,3.316,8.775,3.936,12.956,1.523l9.898-5.715l10.914,18.905l-9.859,5.692C458.303,81.68,456.204,86.552,457.322,91.247z"/> <path d="M471.941,286.399h-6.508c-0.757-2.535-1.764-4.963-3.005-7.248l4.604-4.604c4.262-4.262,4.262-11.173,0-15.436 c-4.262-4.261-11.173-4.261-15.436,0l-4.604,4.604c-2.285-1.24-4.714-2.247-7.248-3.005v-6.508 c0-6.028-4.886-10.914-10.914-10.914s-10.914,4.886-10.914,10.914v6.508c-2.535,0.757-4.963,1.764-7.248,3.005l-4.604-4.604 c-4.262-4.261-11.173-4.261-15.436,0c-4.262,4.262-4.262,11.173,0,15.436l4.604,4.604c-1.24,2.285-2.247,4.714-3.005,7.248 h-6.508c-6.028,0-10.914,4.886-10.914,10.914s4.886,10.914,10.914,10.914h6.508c0.758,2.535,1.764,4.963,3.005,7.248 l-4.604,4.604c-4.262,4.262-4.262,11.173,0,15.436c2.132,2.13,4.925,3.197,7.718,3.197s5.587-1.066,7.718-3.197l4.604-4.604 c2.285,1.24,4.714,2.247,7.248,3.005v6.508c0,6.028,4.886,10.914,10.914,10.914s10.914-4.886,10.914-10.914v-6.508 c2.535-0.757,4.963-1.764,7.248-3.005l4.604,4.604c2.132,2.13,4.925,3.197,7.718,3.197c2.793,0,5.587-1.066,7.718-3.197 c4.262-4.262,4.262-11.173,0-15.436l-4.604-4.604c1.24-2.285,2.247-4.714,3.005-7.248h6.508c6.028,0,10.914-4.886,10.914-10.914 S477.969,286.399,471.941,286.399z M428.829,313.685c-9.027,0-16.372-7.344-16.372-16.372s7.344-16.372,16.372-16.372 s16.372,7.344,16.372,16.372S437.857,313.685,428.829,313.685z"/> </g> </g> </g> </g>

</svg>